<?xml version="1.0" encoding="utf-8"?>
<!-- Generator: Adobe Illustrator 26.3.0, SVG Export Plug-In . SVG Version: 6.00 Build 0)  -->
<svg version="1.1" id="Layer_1" xmlns="http://www.w3.org/2000/svg" xmlns:xlink="http://www.w3.org/1999/xlink" x="0px" y="0px"
	 viewBox="150 80 400 190" style="enable-background:new 0 0 700 350;" xml:space="preserve">
<style type="text/css">
	.st0{fill:#231F20;}
	.st1{fill:#FBAE17;}
	.st2{fill:#231F20;stroke:#231F20;stroke-miterlimit:10;}
</style>
<path class="st0" d="M613.36,145.71v41.16c0,11.28-4.71,21.46-12.26,28.7c-7.13,6.83-16.82,11.04-27.48,11.04
	c-0.46,0-0.92-0.01-1.38-0.03c-0.45-0.01-0.91-0.04-1.36-0.07c-0.45-0.03-0.9-0.06-1.35-0.11c-0.45-0.04-0.9-0.1-1.34-0.16
	s-0.88-0.12-1.32-0.2c-0.34-0.06-0.69-0.12-1.03-0.19c-0.15-0.03-0.29-0.05-0.43-0.09c-0.38-0.08-0.76-0.16-1.13-0.26
	c-0.34-0.08-0.69-0.17-1.02-0.26c-0.09-0.02-0.17-0.04-0.26-0.06v-30.84c0.15,0.2,0.3,0.4,0.47,0.59c0.16,0.19,0.32,0.37,0.48,0.55
	c0.53,0.57,1.1,1.09,1.73,1.55c0.19,0.15,0.4,0.29,0.6,0.42c0.19,0.13,0.38,0.26,0.57,0.37c0.38,0.22,0.77,0.43,1.17,0.62
	c0.15,0.07,0.3,0.14,0.45,0.2c0.17,0.07,0.34,0.14,0.51,0.2c0.18,0.07,0.34,0.13,0.52,0.19c0.15,0.05,0.31,0.1,0.46,0.14
	c0.17,0.04,0.34,0.1,0.5,0.13c0.2,0.05,0.42,0.1,0.63,0.13c0.16,0.04,0.33,0.07,0.49,0.09c0.16,0.03,0.33,0.05,0.49,0.07
	c0.23,0.03,0.46,0.04,0.7,0.06c0.28,0.02,0.57,0.03,0.85,0.03c7.16,0,13.01-5.7,13.24-12.8h0.01v-41.16
	c0-7.31,5.92-13.24,13.24-13.24C607.42,132.47,613.36,138.4,613.36,145.71z"/>
<g>
	<path class="st0" d="M560.35,171.42v52.91c-2.99-1.06-5.81-2.46-8.42-4.17c-0.25-0.17-0.49-0.34-0.74-0.5
		c-1.16-0.79-2.28-1.65-3.34-2.56c-0.21-0.18-0.41-0.35-0.62-0.53c-0.04-0.04-0.07-0.07-0.11-0.1c-7.03,6.3-16.33,10.14-26.51,10.14
		c-10.22,0-19.55-3.87-26.59-10.21c-7.04,6.34-16.37,10.21-26.59,10.21c-10.67,0-20.34-4.2-27.48-11.04
		c-7.55-7.23-12.26-17.41-12.26-28.7c0.05-19.54,0.11-39.07,0.17-58.61c0-7.31,5.93-13.24,13.24-13.24
		c7.31,0,13.24,5.93,13.24,13.24c-0.06,19.54-0.11,39.07-0.17,58.61h0.01c0.23,7.11,6.07,12.8,13.24,12.8
		c7.16,0,13.01-5.7,13.24-12.8h0.01c0.04-9.85,0.06-19.7,0.1-29.55c0.02-4.99,0.03-9.97,0.05-14.96c0.01-4.19,0.03-8.38,0.04-12.57
		c0.01-0.51,0.01-1.02,0.01-1.53c0-7.08,5.57-12.87,12.56-13.23c0.19-0.02,0.39-0.02,0.58-0.02c0.23,0,0.46,0.01,0.68,0.02
		c7.05,0.3,12.66,6.11,12.66,13.23v58.61h0.01c0.23,7.11,6.07,12.8,13.24,12.8c7.16,0,13.01-5.7,13.24-12.8h0.01v-15.45
		c0-4.15,1.91-7.85,4.89-10.26c0.14-0.11,0.29-0.23,0.43-0.34c0.04-0.02,0.06-0.04,0.09-0.06c0.12-0.1,0.25-0.18,0.36-0.26
		c0.4-0.26,0.8-0.51,1.23-0.74c0.08-0.04,0.16-0.09,0.24-0.13c0.06-0.03,0.11-0.05,0.18-0.09c0.68-0.33,1.4-0.61,2.13-0.82
		c0.13-0.04,0.26-0.08,0.4-0.11c0.1-0.04,0.19-0.05,0.28-0.07c0.09-0.02,0.19-0.04,0.28-0.06c0.23-0.05,0.47-0.1,0.71-0.13
		c0.17-0.03,0.34-0.05,0.51-0.07c0.17-0.03,0.34-0.04,0.51-0.05c0.34-0.03,0.69-0.04,1.04-0.04c0.34,0,0.68,0.01,1.01,0.04
		c0.21,0.02,0.42,0.04,0.64,0.06c0.2,0.03,0.41,0.05,0.61,0.09c0.19,0.04,0.39,0.07,0.58,0.11c0.38,0.09,0.76,0.19,1.12,0.3
		c0,0,0,0,0.01,0c0.17,0.05,0.34,0.11,0.5,0.17c0.16,0.06,0.32,0.11,0.48,0.19c0.03,0,0.06,0.02,0.09,0.04
		c0.12,0.05,0.25,0.11,0.37,0.16C557.14,161.43,560.35,166.05,560.35,171.42z"/>
</g>
<circle class="st1" cx="510.74" cy="252.19" r="13.24"/>
<circle class="st1" cx="540.19" cy="252.19" r="13.24"/>
<g>
	<g>
		<path class="st2" d="M666.33,116.36c0,7.1-5.41,12.9-12.19,13.22c-0.2,0.02-0.41,0.02-0.61,0.02h-53.89c-0.2,0-0.4,0-0.6-0.02
			c-6.78-0.32-12.19-6.12-12.19-13.23c0-7.1,5.41-12.9,12.19-13.22c0.09-0.01,0.18-0.01,0.27-0.01h54.22c0.2,0,0.41,0,0.61,0.02
			C660.92,103.46,666.33,109.25,666.33,116.36z"/>
		<path class="st2" d="M599.31,103.12c-0.09,0-0.18,0-0.27,0.01v-0.01H599.31z"/>
		<path class="st2" d="M599.64,129.6h-0.6c0-0.01,0-0.01,0-0.02C599.24,129.6,599.44,129.6,599.64,129.6z"/>
	</g>
	<g>
		<path class="st2" d="M654.14,103.11v0.03c-0.2-0.02-0.41-0.02-0.61-0.02h-54.22c0.11-0.01,0.22-0.01,0.33-0.01H654.14z"/>
		<path class="st2" d="M653.53,129.6c0.2,0,0.41,0,0.61-0.02c0,0.01,0,0.01,0,0.02H653.53z"/>
	</g>
</g>
<g>
	<g>
		<path class="st1" d="M646.46,92.51c0,4.27-2.71,7.75-6.1,7.94h-27.24c-0.1,0-0.21,0-0.31-0.01c-3.4-0.2-6.09-3.67-6.09-7.93
			c0-4.26,2.69-7.73,6.09-7.93c0.1-0.01,0.21-0.01,0.31-0.01h26.94c0.1,0,0.2,0,0.3,0.01C643.75,84.77,646.46,88.24,646.46,92.51z"
			/>
		<path class="st1" d="M613.12,84.57c-0.1,0-0.21,0-0.31,0.01v-0.01H613.12z"/>
		<path class="st1" d="M640.36,100.45c-0.1,0.01-0.2,0.01-0.3,0.01h-27.25c0-0.01,0-0.01,0-0.02c0.1,0.01,0.21,0.01,0.31,0.01
			H640.36z"/>
	</g>
	<g>
		<path class="st1" d="M640.36,84.57L640.36,84.57c-0.1,0-0.2,0-0.3,0H640.36z"/>
	</g>
</g>
<g>
	<path class="st2" d="M405.12,173.81c-0.49-1.92-1.12-3.79-1.88-5.59c-2.12-5.02-5.23-9.5-9.09-13.2
		c-4.04-3.88-8.89-6.91-14.28-8.81c-4.14-1.47-8.6-2.27-13.24-2.27c-4.64,0-9.1,0.79-13.24,2.27c-0.01,0.01-0.03,0.01-0.03,0.01
		c-0.03,0.01-0.05,0.02-0.08,0.03c-5.35,1.91-10.16,4.93-14.18,8.78c-3.86,3.71-6.98,8.19-9.09,13.2c-0.76,1.8-1.4,3.66-1.88,5.59
		c-0.58,2.29-0.97,4.65-1.14,7.08v0.01c-0.05,0.77-0.09,1.54-0.1,2.31v0.44c0,0.01,0,0.01,0,0.02h-0.49v-15.6
		c-0.08-6.71-5.17-12.23-11.7-12.98c-0.5-0.07-1.02-0.1-1.55-0.1c-0.22,0-0.44,0.01-0.66,0.02c-0.15,0.01-0.3,0.02-0.44,0.04
		c-6.57,0.72-11.69,6.28-11.76,13.02c-0.03,5.15-0.06,10.3-0.1,15.45v-1.29c0,0.43-0.01,0.86-0.01,1.29c0,5.29-5.37,12.8-13.24,12.8
		c-7.24-0.01-13.53-6.4-13.24-14.24c-0.11-2.9-0.51-5.72-1.21-8.43c-0.49-1.92-1.12-3.79-1.88-5.59c-2.11-5-5.22-9.48-9.08-13.19
		c0,0-0.01,0-0.01-0.01c-7.14-6.86-16.84-11.08-27.53-11.08c-10.2,0-19.51,3.85-26.55,10.17c-0.33,0.3-0.65,0.61-0.98,0.91
		c-3.86,3.72-6.98,8.19-9.09,13.2c0,0.01,0,0.01,0,0.01c-0.76,1.8-1.4,3.66-1.88,5.58c-0.02,0.05-0.03,0.11-0.04,0.16
		c0,0,0,0,0,0.01c-0.79,3.1-1.2,6.35-1.2,9.69v0.01h-0.11c-0.23,7.12-6.07,12.8-13.24,12.8c-6.94,0-12.63-5.33-13.2-12.14
		c0-0.04,0-0.07-0.01-0.11c-0.01-0.19-0.02-0.37-0.03-0.56h-0.01v-15.53c-0.04-6.88-5.32-12.52-12.07-13.11
		c-0.39-0.04-0.78-0.05-1.17-0.05c-0.35,0-0.7,0.02-1.04,0.04c-3.75,0.29-7.05,2.15-9.29,4.92c-0.15,0.19-0.29,0.37-0.43,0.57
		c-0.15,0.2-0.29,0.41-0.42,0.63c-0.11,0.17-0.21,0.34-0.31,0.52c-0.09,0.14-0.17,0.28-0.24,0.43c-0.06,0.11-0.11,0.2-0.16,0.31
		c-0.11,0.22-0.2,0.44-0.3,0.66c-0.08,0.19-0.16,0.4-0.23,0.59c-0.06,0.18-0.12,0.35-0.18,0.53c-0.06,0.21-0.12,0.42-0.18,0.64
		c-0.03,0.11-0.06,0.22-0.09,0.34c-0.02,0.07-0.04,0.14-0.04,0.21c-0.04,0.17-0.07,0.34-0.1,0.51c-0.04,0.25-0.08,0.49-0.11,0.73
		c0,0.01,0,0.01,0,0.01c-0.03,0.22-0.04,0.43-0.06,0.65c-0.02,0.29-0.03,0.58-0.03,0.87c0.1,8.38,0.06,14.54-0.04,15.94
		c-0.07,1.05-0.19,1.56-0.28,1.95c-1.54,6.26-8.63,9.38-10.21,10.07c-4.39,1.93-8.8,2.15-17.62,2.58c-0.49,0.02-1.62,0.07-2.92,0.12
		c-2.83,0.11-6.04,0.18-9.69,0.21c-5.62,0.05-10.17-0.01-13.87-0.15c-6.82-0.26-10.79-0.78-13.24-1.35
		c-0.95-0.22-1.95-0.58-3.09-1.05c-2.19-0.92-5.15-2.16-7.34-4.91c-2.22-2.78-2.7-5.93-2.8-7.72h-0.01v-15.45
		c0-7.31-5.93-13.24-13.24-13.24c-0.35,0-0.7,0.02-1.04,0.04c-0.33,0.03-0.65,0.06-0.97,0.11c-0.15,0.03-0.29,0.05-0.43,0.08
		c-0.13,0.02-0.26,0.04-0.38,0.07c-0.23,0.05-0.46,0.11-0.68,0.17c-0.19,0.05-0.37,0.11-0.56,0.17c-0.19,0.06-0.39,0.13-0.58,0.2
		c-0.63,0.24-1.24,0.52-1.81,0.84c-0.26,0.14-0.49,0.29-0.74,0.45c-0.2,0.13-0.4,0.27-0.59,0.42c-0.05,0.04-0.1,0.07-0.15,0.11
		c-0.01,0.01-0.01,0.01-0.02,0.02c-0.04,0.04-0.09,0.07-0.13,0.11c-0.12,0.09-0.24,0.19-0.35,0.28c-0.01,0.01-0.03,0.02-0.04,0.03
		c-0.04,0.04-0.1,0.08-0.14,0.11c-0.02,0.02-0.04,0.03-0.04,0.04l-0.18,0.18c-0.12,0.11-0.25,0.22-0.37,0.34
		c-0.11,0.11-0.21,0.22-0.31,0.33c-0.03,0.03-0.05,0.04-0.06,0.07c-0.17,0.17-0.33,0.34-0.48,0.53c-0.07,0.07-0.13,0.15-0.19,0.22
		c-0.19,0.24-0.36,0.48-0.54,0.72c-0.1,0.13-0.19,0.26-0.26,0.4c-0.01,0.01-0.02,0.02-0.02,0.02c-0.17,0.26-0.32,0.5-0.46,0.77
		c-0.02,0.03-0.03,0.05-0.04,0.08c-0.1,0.19-0.19,0.36-0.28,0.55c-0.11,0.21-0.2,0.42-0.3,0.64c-0.08,0.2-0.16,0.41-0.24,0.62
		c-0.22,0.6-0.4,1.23-0.53,1.86c-0.01,0.03-0.01,0.06-0.02,0.09c-0.04,0.26-0.09,0.5-0.12,0.76c-0.04,0.26-0.06,0.51-0.08,0.78
		c-0.01,0.04-0.01,0.09-0.01,0.13c-0.03,0.3-0.04,0.61-0.04,0.92v15.45c0,0.01,0,0.01,0,0.02c0.01,11.28,4.71,21.45,12.26,28.68
		c0.01,0.01,0.01,0.01,0.02,0.02c4.39,4.2,9.74,7.4,15.69,9.24c3.55,1.1,6.53,1.47,11.72,1.77h0.05c0.08,0.01,0.17,0.01,0.25,0.02
		c11.05,0.63,15.7,0.04,27.02-0.02c10.14-0.05,15.52,0.37,27.32-0.22c4.16-0.21,7.37-0.46,11.38-1.66
		c5.64-1.68,10.75-4.59,15.05-8.41c7.03,6.31,16.33,10.15,26.51,10.15c10.21,0,19.51-3.85,26.55-10.17
		c7.04,6.32,16.34,10.16,26.53,10.16c10.17,0,19.44-3.82,26.47-10.1c7.03,6.28,16.3,10.11,26.48,10.11
		c10.16,0,19.43-3.81,26.46-10.1c7.05,6.36,16.37,10.23,26.61,10.23c4.65,0,9.12-0.8,13.27-2.28c4.16,1.49,8.64,2.3,13.32,2.3
		c10.67,0,20.33-4.2,27.48-11.04c7.55-7.23,12.26-17.41,12.26-28.7C406.36,180.27,405.94,176.96,405.12,173.81z M234.01,196.32
		c-7.01,0-12.94-5.66-13.24-12.79h-0.11v-0.01h0.11v-0.44c0-7.32,5.93-13.24,13.24-13.24c7.05,0,12.81,5.5,13.22,12.45
		c0.02,0.26,0.03,0.53,0.03,0.79C247.2,190.38,241.19,196.32,234.01,196.32z M379.87,183.67L379.87,183.67
		c-0.02,0.41-0.05,0.81-0.11,1.2c-0.01,0.08-0.02,0.16-0.03,0.23c-0.91,6.43-6.43,11.37-13.11,11.37c-7.16,0-13.01-5.7-13.24-12.8
		c-0.01-0.14-0.01-0.29-0.01-0.44c0-2.75,0.85-5.32,2.29-7.44c2.38-3.51,6.4-5.8,10.96-5.8c4.49,0,8.47,2.23,10.85,5.66
		c1.09,1.55,1.85,3.35,2.19,5.28c0.04,0.22,0.07,0.44,0.1,0.66c0.07,0.54,0.11,1.09,0.11,1.64V183.67z"/>
</g>
<g>
	<circle class="st1" cx="85.2" cy="139.77" r="13.24"/>
	<circle class="st1" cx="114.65" cy="139.77" r="13.24"/>
</g>
<circle class="st1" cx="286.07" cy="139.54" r="13.24"/>
</svg>
