<?xml version="1.0" encoding="utf-8"?>
<!-- Generator: Adobe Illustrator 26.3.0, SVG Export Plug-In . SVG Version: 6.00 Build 0)  -->
<svg version="1.1" id="Layer_1" xmlns="http://www.w3.org/2000/svg" xmlns:xlink="http://www.w3.org/1999/xlink" x="0px" y="0px"
	 viewBox="400 150 650 400" style="enable-background:new 0 0 1400 700;" xml:space="preserve">
<style type="text/css">
	.st0{fill:#231F20;}
	.st1{fill:#FBAE17;}
	.st2{fill:#231F20;stroke:#231F20;stroke-miterlimit:10;}
</style>
<g>
	<path class="st0" d="M1268.76,286.74v88.9c0,24.37-10.16,46.36-26.47,61.97c-15.41,14.76-36.33,23.84-59.34,23.84
		c-0.99,0-1.98-0.02-2.97-0.06c-0.97-0.02-1.96-0.08-2.94-0.15c-0.97-0.06-1.95-0.13-2.92-0.25c-0.97-0.1-1.95-0.21-2.9-0.34
		c-0.95-0.13-1.91-0.27-2.86-0.44c-0.74-0.13-1.49-0.27-2.23-0.42c-0.32-0.06-0.63-0.11-0.93-0.19c-0.82-0.17-1.64-0.34-2.44-0.55
		c-0.74-0.17-1.49-0.36-2.21-0.57c-0.19-0.04-0.36-0.08-0.55-0.13v-66.61c0.32,0.44,0.65,0.86,1.01,1.28
		c0.34,0.4,0.69,0.8,1.03,1.18c1.14,1.22,2.38,2.35,3.74,3.36c0.42,0.32,0.86,0.63,1.3,0.92c0.4,0.29,0.82,0.55,1.24,0.8
		c0.82,0.48,1.66,0.93,2.54,1.33c0.32,0.15,0.65,0.31,0.97,0.44c0.36,0.15,0.72,0.31,1.11,0.44c0.38,0.15,0.74,0.29,1.13,0.4
		c0.32,0.11,0.67,0.21,0.99,0.31c0.36,0.1,0.72,0.21,1.09,0.29c0.44,0.11,0.9,0.21,1.35,0.29c0.34,0.08,0.71,0.15,1.07,0.19
		c0.34,0.06,0.71,0.11,1.07,0.15c0.5,0.06,0.99,0.1,1.51,0.13c0.61,0.04,1.22,0.06,1.83,0.06c15.46,0,28.09-12.3,28.58-27.65h0.02
		v-88.9c0-15.79,12.8-28.6,28.6-28.6C1255.95,258.14,1268.76,270.95,1268.76,286.74z"/>
	<g>
		<path class="st0" d="M1154.27,342.27v114.26c-6.46-2.29-12.55-5.32-18.19-9c-0.53-0.36-1.07-0.72-1.6-1.09
			c-2.5-1.72-4.92-3.57-7.21-5.53c-0.46-0.38-0.9-0.76-1.33-1.14c-0.08-0.08-0.15-0.15-0.23-0.21
			c-15.18,13.62-35.26,21.89-57.24,21.89c-22.08,0-42.22-8.35-57.42-22.04c-15.2,13.69-35.35,22.04-57.42,22.04
			c-23.03,0-43.93-9.08-59.34-23.84c-16.3-15.62-26.47-37.6-26.47-61.97c0.11-42.2,0.23-84.38,0.36-126.58
			c0-15.79,12.81-28.6,28.6-28.6c15.79,0,28.6,12.81,28.6,28.6c-0.13,42.2-0.25,84.38-0.36,126.58h0.02
			c0.5,15.35,13.1,27.65,28.58,27.65c15.46,0,28.09-12.3,28.58-27.65h0.02c0.08-21.28,0.13-42.54,0.21-63.82
			c0.04-10.77,0.06-21.53,0.11-32.3c0.02-9.06,0.06-18.1,0.08-27.15c0.02-1.11,0.02-2.19,0.02-3.3c0-15.29,12.03-27.8,27.13-28.57
			c0.42-0.04,0.84-0.04,1.26-0.04c0.5,0,0.99,0.02,1.47,0.04c15.22,0.65,27.34,13.2,27.34,28.57v126.58h0.02
			c0.5,15.35,13.1,27.65,28.58,27.65c15.46,0,28.09-12.3,28.58-27.65h0.02v-33.37c0-8.96,4.12-16.95,10.56-22.16
			c0.31-0.25,0.63-0.5,0.93-0.72c0.08-0.04,0.13-0.1,0.19-0.13c0.27-0.21,0.53-0.38,0.78-0.57c0.86-0.57,1.74-1.11,2.65-1.6
			c0.17-0.1,0.34-0.19,0.51-0.29c0.13-0.06,0.25-0.11,0.38-0.19c1.47-0.71,3.01-1.32,4.6-1.77c0.29-0.1,0.57-0.17,0.86-0.23
			c0.21-0.08,0.4-0.11,0.61-0.15c0.19-0.04,0.4-0.1,0.61-0.13c0.5-0.11,1.01-0.21,1.53-0.29c0.36-0.06,0.72-0.11,1.11-0.15
			c0.36-0.06,0.74-0.08,1.11-0.11c0.74-0.06,1.49-0.1,2.25-0.1c0.72,0,1.47,0.02,2.17,0.1c0.46,0.04,0.92,0.08,1.37,0.13
			c0.44,0.06,0.88,0.11,1.32,0.19c0.42,0.08,0.84,0.15,1.26,0.25c0.82,0.19,1.64,0.4,2.42,0.65c0,0,0,0,0.02,0
			c0.36,0.11,0.72,0.25,1.09,0.36c0.34,0.13,0.69,0.25,1.03,0.4c0.06,0,0.13,0.04,0.19,0.08c0.27,0.11,0.53,0.23,0.8,0.34
			C1147.35,320.68,1154.27,330.67,1154.27,342.27z"/>
	</g>
	<circle class="st1" cx="1047.13" cy="516.7" r="28.6"/>
	<circle class="st1" cx="1110.73" cy="516.7" r="28.6"/>
	<g>
		<g>
			<path class="st2" d="M1383.16,223.35c0,15.33-11.68,27.86-26.33,28.55c-0.43,0.04-0.89,0.04-1.32,0.04h-116.38
				c-0.43,0-0.86,0-1.3-0.04c-14.64-0.69-26.33-13.22-26.33-28.57c0-15.33,11.68-27.86,26.33-28.55c0.19-0.02,0.39-0.02,0.58-0.02
				h117.1c0.43,0,0.89,0,1.32,0.04C1371.48,195.49,1383.16,208,1383.16,223.35z"/>
			<path class="st2" d="M1238.42,194.76c-0.19,0-0.39,0-0.58,0.02v-0.02H1238.42z"/>
			<path class="st2" d="M1239.13,251.95h-1.3c0-0.02,0-0.02,0-0.04C1238.27,251.95,1238.7,251.95,1239.13,251.95z"/>
		</g>
		<g>
			<path class="st2" d="M1356.84,194.74v0.06c-0.43-0.04-0.89-0.04-1.32-0.04h-117.1c0.24-0.02,0.48-0.02,0.71-0.02H1356.84z"/>
			<path class="st2" d="M1355.52,251.95c0.43,0,0.89,0,1.32-0.04c0,0.02,0,0.02,0,0.04H1355.52z"/>
		</g>
	</g>
	<g>
		<g>
			<path class="st1" d="M1340.25,171.84c0,9.22-5.85,16.74-13.17,17.15h-58.83c-0.22,0-0.45,0-0.67-0.02
				c-7.34-0.43-13.15-7.93-13.15-17.13c0-9.2,5.81-16.69,13.15-17.13c0.22-0.02,0.45-0.02,0.67-0.02h58.18c0.22,0,0.43,0,0.65,0.02
				C1334.4,155.13,1340.25,162.62,1340.25,171.84z"/>
			<path class="st1" d="M1268.25,154.7c-0.22,0-0.45,0-0.67,0.02v-0.02H1268.25z"/>
			<path class="st1" d="M1327.08,188.99c-0.22,0.02-0.43,0.02-0.65,0.02h-58.85c0-0.02,0-0.02,0-0.04c0.22,0.02,0.45,0.02,0.67,0.02
				H1327.08z"/>
		</g>
		<g>
			<path class="st1" d="M1327.08,154.7v0.02c-0.22-0.02-0.43-0.02-0.65-0.02H1327.08z"/>
		</g>
	</g>
	<g>
		<path class="st2" d="M819.04,347.43c-1.05-4.16-2.42-8.18-4.06-12.07c-4.58-10.83-11.29-20.52-19.64-28.51
			c-8.71-8.39-19.2-14.93-30.83-19.03c-8.94-3.18-18.57-4.9-28.6-4.9c-10.03,0-19.66,1.72-28.6,4.9c-0.02,0.02-0.06,0.02-0.06,0.02
			c-0.06,0.02-0.11,0.04-0.17,0.06c-11.56,4.12-21.95,10.64-30.62,18.95c-8.33,8.01-15.06,17.7-19.62,28.51
			c-1.64,3.89-3.01,7.91-4.06,12.07c-1.26,4.94-2.1,10.05-2.46,15.29v0.02c-0.11,1.66-0.19,3.32-0.21,5v0.95c0,0.02,0,0.02,0,0.04
			h-1.05v-33.69c-0.17-14.49-11.16-26.41-25.27-28.03c-1.09-0.15-2.21-0.21-3.34-0.21c-0.48,0-0.95,0.02-1.43,0.04
			c-0.32,0.02-0.65,0.04-0.95,0.08c-14.19,1.56-25.25,13.56-25.4,28.13c-0.06,11.12-0.13,22.25-0.21,33.37v-2.78
			c0,0.93-0.02,1.85-0.02,2.78c0,11.42-11.59,27.65-28.58,27.65c-15.64-0.02-29.21-13.82-28.6-30.76
			c-0.23-6.27-1.11-12.36-2.61-18.21c-1.07-4.16-2.42-8.18-4.06-12.07c-4.56-10.79-11.27-20.48-19.6-28.49c0,0-0.02,0-0.02-0.02
			c-15.43-14.82-36.36-23.93-59.46-23.93c-22.02,0-42.14,8.31-57.34,21.97c-0.71,0.65-1.41,1.32-2.12,1.96
			c-8.33,8.03-15.06,17.7-19.62,28.51c0,0.02,0,0.02,0,0.02c-1.64,3.89-3.01,7.89-4.06,12.05c-0.04,0.11-0.06,0.23-0.08,0.34
			c0,0,0,0,0,0.02c-1.7,6.69-2.59,13.71-2.59,20.94v0.02h-0.25c-0.5,15.37-13.1,27.65-28.58,27.65c-14.99,0-27.29-11.52-28.51-26.22
			c0-0.08,0-0.15-0.02-0.23c-0.02-0.4-0.04-0.8-0.06-1.2h-0.02v-33.54c-0.1-14.85-11.5-27.04-26.07-28.32
			c-0.84-0.08-1.68-0.11-2.54-0.11c-0.76,0-1.51,0.04-2.25,0.1c-8.1,0.63-15.24,4.63-20.06,10.62c-0.32,0.4-0.63,0.8-0.93,1.22
			c-0.32,0.44-0.63,0.9-0.92,1.35c-0.23,0.36-0.46,0.74-0.67,1.13c-0.19,0.31-0.36,0.61-0.51,0.93c-0.13,0.23-0.23,0.44-0.34,0.67
			c-0.23,0.48-0.44,0.95-0.65,1.43c-0.17,0.42-0.34,0.86-0.5,1.28c-0.13,0.38-0.27,0.76-0.38,1.14c-0.13,0.46-0.27,0.92-0.38,1.37
			c-0.06,0.23-0.13,0.48-0.19,0.72c-0.04,0.15-0.08,0.31-0.1,0.46c-0.08,0.36-0.15,0.72-0.21,1.11c-0.1,0.53-0.17,1.07-0.23,1.58
			c0,0.02,0,0.02,0,0.02c-0.06,0.48-0.1,0.93-0.13,1.41c-0.04,0.63-0.06,1.26-0.06,1.89c0.21,18.1,0.13,31.41-0.08,34.42
			c-0.16,2.26-0.4,3.38-0.61,4.21c-3.32,13.53-18.63,20.26-22.04,21.76c-9.49,4.17-19.01,4.64-38.06,5.57
			c-1.07,0.05-3.51,0.16-6.31,0.27c-6.1,0.23-13.04,0.38-20.94,0.46c-12.13,0.11-21.97-0.02-29.96-0.32
			c-14.72-0.55-23.3-1.68-28.6-2.92c-2.05-0.48-4.21-1.24-6.68-2.28c-4.73-1.98-11.13-4.66-15.86-10.61
			c-4.79-6.01-5.83-12.8-6.05-16.68h-0.02v-33.37c0-15.79-12.81-28.6-28.6-28.6c-0.76,0-1.51,0.04-2.25,0.1
			c-0.71,0.06-1.41,0.13-2.1,0.23c-0.32,0.06-0.63,0.11-0.93,0.17c-0.29,0.04-0.55,0.1-0.82,0.15c-0.5,0.11-0.99,0.23-1.47,0.36
			c-0.4,0.11-0.8,0.23-1.2,0.36c-0.42,0.13-0.84,0.29-1.26,0.44c-1.35,0.51-2.67,1.12-3.91,1.81c-0.55,0.31-1.07,0.63-1.6,0.97
			c-0.44,0.29-0.86,0.59-1.28,0.9c-0.11,0.08-0.21,0.15-0.32,0.23c-0.02,0.02-0.02,0.02-0.04,0.04c-0.1,0.08-0.19,0.15-0.29,0.23
			c-0.27,0.19-0.51,0.4-0.76,0.61c-0.02,0.02-0.06,0.04-0.08,0.06c-0.1,0.1-0.21,0.17-0.31,0.25c-0.04,0.04-0.08,0.06-0.1,0.08
			l-0.38,0.38c-0.27,0.23-0.53,0.48-0.8,0.72c-0.23,0.23-0.46,0.48-0.67,0.71c-0.06,0.06-0.11,0.1-0.13,0.15
			c-0.36,0.36-0.71,0.74-1.03,1.14c-0.15,0.15-0.29,0.32-0.42,0.48c-0.4,0.51-0.78,1.03-1.16,1.56c-0.21,0.29-0.4,0.57-0.57,0.86
			c-0.02,0.02-0.04,0.04-0.04,0.04c-0.36,0.55-0.69,1.09-0.99,1.66c-0.04,0.06-0.06,0.11-0.1,0.17c-0.21,0.4-0.42,0.78-0.61,1.18
			c-0.23,0.46-0.44,0.92-0.65,1.39c-0.17,0.44-0.34,0.88-0.51,1.33c-0.48,1.3-0.86,2.65-1.14,4.02c-0.02,0.06-0.02,0.13-0.04,0.19
			c-0.1,0.55-0.19,1.09-0.27,1.64c-0.08,0.55-0.13,1.11-0.17,1.68c-0.02,0.1-0.02,0.19-0.02,0.29c-0.06,0.65-0.08,1.32-0.08,1.98
			v33.37c0,0.02,0,0.02,0,0.04C16.86,393.1,27,415.06,43.3,430.68c0.02,0.02,0.02,0.02,0.04,0.04c9.48,9.08,21.03,15.98,33.89,19.96
			c7.67,2.38,14.09,3.17,25.3,3.83h0.11c0.17,0.02,0.36,0.02,0.53,0.04c23.86,1.35,33.9,0.1,58.35-0.04
			c21.89-0.11,33.52,0.8,59-0.48c8.98-0.46,15.92-0.99,24.58-3.58c12.18-3.62,23.23-9.92,32.49-18.15
			c15.18,13.63,35.26,21.91,57.24,21.91c22.04,0,42.14-8.31,57.34-21.97c15.2,13.65,35.3,21.95,57.3,21.95
			c21.97,0,41.99-8.26,57.17-21.81c15.18,13.56,35.2,21.83,57.19,21.83c21.95,0,41.97-8.24,57.15-21.81
			c15.22,13.73,35.35,22.1,57.47,22.1c10.05,0,19.7-1.74,28.66-4.92c8.98,3.22,18.67,4.96,28.77,4.96
			c23.04,0,43.92-9.08,59.34-23.84c16.3-15.62,26.47-37.6,26.47-61.97C821.71,361.37,820.8,354.23,819.04,347.43z M449.49,396.03
			c-15.15,0-27.95-12.23-28.58-27.63h-0.25v-0.02h0.23v-0.95c0-15.81,12.81-28.6,28.6-28.6c15.24,0,27.67,11.88,28.55,26.89
			c0.04,0.57,0.06,1.14,0.06,1.72C477.97,383.21,465,396.03,449.49,396.03z M764.5,368.73h-0.02c-0.02,0.88-0.1,1.75-0.21,2.59
			c-0.02,0.17-0.04,0.34-0.06,0.5c-1.96,13.88-13.88,24.56-28.32,24.56c-15.46,0-28.09-12.3-28.58-27.65
			c-0.02-0.31-0.02-0.63-0.02-0.95c0-5.95,1.83-11.5,4.94-16.07c5.15-7.57,13.82-12.53,23.66-12.53c9.71,0,18.29,4.82,23.44,12.22
			c2.36,3.34,4,7.23,4.73,11.4c0.1,0.48,0.15,0.95,0.21,1.43c0.15,1.16,0.23,2.35,0.23,3.55V368.73z"/>
	</g>
	<g>
		<circle class="st1" cx="128.12" cy="273.91" r="28.6"/>
		<circle class="st1" cx="191.72" cy="273.91" r="28.6"/>
	</g>
	<circle class="st1" cx="561.92" cy="273.42" r="28.6"/>
</g>
</svg>
